<svg xmlns="http://www.w3.org/2000/svg" xmlns:xlink="http://www.w3.org/1999/xlink" xmlns:lucid="lucid" width="1322.44" height="767.8"><g transform="translate(4.222222222222172 9.8)" lucid:page-tab-id="0_0"><path d="M80 178.67h260v80H80z" stroke="#000" stroke-width="2" fill="#83bbe5"/><use xlink:href="#a" transform="matrix(1,0,0,1,85,183.66666666666666) translate(43.375 38.6)"/><path d="M378.67 177.33h260v80h-260z" stroke="#000" stroke-width="2" fill="#b2d6ef"/><use xlink:href="#b" transform="matrix(1,0,0,1,383.6666666666667,182.33333333333331) translate(98.4 38.6)"/><path d="M680 177.33h260v80H680z" stroke="#000" stroke-width="2" fill="#99d2f2"/><use xlink:href="#c" transform="matrix(1,0,0,1,685,182.33333333333331) translate(21.19999999999999 38.6)"/><use xlink:href="#d" transform="matrix(1,0,0,1,685,182.33333333333331) translate(113.05 38.6)"/><path d="M980 180h260v80H980z" stroke="#000" stroke-width="2" fill="#3aa6dd"/><use xlink:href="#e" transform="matrix(1,0,0,1,985,185) translate(29.69999999999999 38.6)"/><use xlink:href="#f" transform="matrix(1,0,0,1,985,185) translate(118.5 38.6)"/><path d="M87.5 300h245v74.8h-245z" stroke="#000" stroke-width="2" fill="#83bbe5"/><use xlink:href="#g" transform="matrix(1,0,0,1,92.5,305) translate(64.725 36.1)"/><use xlink:href="#h" transform="matrix(1,0,0,1,92.5,305) translate(108.32499999999999 36.1)"/><path d="M87.5 414.8h245v74.8h-245z" stroke="#000" stroke-width="2" fill="#83bbe5"/><use xlink:href="#i" transform="matrix(1,0,0,1,92.5,419.8) translate(28.924999999999983 36.1)"/><use xlink:href="#j" transform="matrix(1,0,0,1,92.5,419.8) translate(121.32499999999999 36.1)"/><path d="M87.5 529.6h245v74.8h-245z" stroke="#000" stroke-width="2" fill="#83bbe5"/><use xlink:href="#k" transform="matrix(1,0,0,1,92.5,534.6) translate(87.05 36.1)"/><path d="M756 40c35.35 0 64 17.9 64 40s-28.65 40-64 40H564c-35.35 0-64-17.9-64-40s28.65-40 64-40z" stroke="#000" stroke-width="2" fill="#834187"/><use xlink:href="#l" transform="matrix(1,0,0,1,505,45) translate(21.274999999999977 38.6)"/><use xlink:href="#m" transform="matrix(1,0,0,1,505,45) translate(112.02499999999999 38.6)"/><use xlink:href="#n" transform="matrix(1,0,0,1,505,45) translate(173.875 38.6)"/><use xlink:href="#o" transform="matrix(1,0,0,1,505,45) translate(195.775 38.6)"/><path d="M386.17 298.67h245v74.8h-245z" stroke="#000" stroke-width="2" fill="#c1e4f7"/><use xlink:href="#p" transform="matrix(1,0,0,1,391.1666666666667,303.66666666666663) translate(37.5 36.1)"/><use xlink:href="#q" transform="matrix(1,0,0,1,391.1666666666667,303.66666666666663) translate(115.4 36.1)"/><use xlink:href="#r" transform="matrix(1,0,0,1,391.1666666666667,303.66666666666663) translate(144.3 36.1)"/><path d="M386.17 413.47h245v74.8h-245z" stroke="#000" stroke-width="2" fill="#c1e4f7"/><use xlink:href="#s" transform="matrix(1,0,0,1,391.1666666666667,418.4666666666667) translate(47.07499999999999 36.1)"/><use xlink:href="#t" transform="matrix(1,0,0,1,391.1666666666667,418.4666666666667) translate(125.02499999999999 36.1)"/><path d="M387.5 528.27h245v74.8h-245z" stroke="#000" stroke-width="2" fill="#c1e4f7"/><use xlink:href="#u" transform="matrix(1,0,0,1,392.5,533.2666666666667) translate(43.625 36.1)"/><use xlink:href="#v" transform="matrix(1,0,0,1,392.5,533.2666666666667) translate(121.42500000000001 36.1)"/><path d="M210 259.67V299" stroke="#000" stroke-width="2" fill="none"/><path d="M211 259.67h-2v-1h2zM211 300h-2v-1h2z"/><path d="M210 375.8v38" stroke="#000" stroke-width="2" fill="none"/><path d="M211 375.8h-2v-1h2zM211 414.8h-2v-1h2z"/><path d="M210 490.6v38" stroke="#000" stroke-width="2" fill="none"/><path d="M211 490.6h-2v-1h2zM211 529.6h-2v-1h2z"/><path d="M508.67 258.33v39.34" stroke="#000" stroke-width="2" fill="none"/><path d="M509.67 258.33h-2v-1h2zM509.67 298.67h-2v-1h2z"/><path d="M508.67 374.47v38" stroke="#000" stroke-width="2" fill="none"/><path d="M509.67 374.47h-2v-1h2zM509.67 413.47h-2v-1h2z"/><path d="M508.67 489.27v19H510v19" stroke="#000" stroke-width="2" fill="none"/><path d="M509.67 489.27h-2v-1h2zM511 528.27h-2v-1h2z"/><path d="M687.5 298.67h245v74.8h-245z" stroke="#000" stroke-width="2" fill="#99d2f2"/><use xlink:href="#w" transform="matrix(1,0,0,1,692.5,303.66666666666663) translate(52.19999999999999 36.1)"/><path d="M687.5 413.27h245v74.8h-245z" stroke="#000" stroke-width="2" fill="#99d2f2"/><use xlink:href="#x" transform="matrix(1,0,0,1,692.5,418.26666666666665) translate(17.674999999999997 36.1)"/><path d="M810 258.33v39.34" stroke="#000" stroke-width="2" fill="none"/><path d="M811 258.33h-2v-1h2zM811 298.67h-2v-1h2z"/><path d="M810 374.47v37.8" stroke="#000" stroke-width="2" fill="none"/><path d="M811 374.47h-2v-1h2zM811 413.27h-2v-1h2z"/><path d="M660 121v28.33H210v28.34" stroke="#000" stroke-width="2" fill="none"/><path d="M661 121h-2v-1h2zM211 178.67h-2v-1h2z"/><path d="M1110 179v-29H660v-29" stroke="#000" stroke-width="2" fill="none"/><path d="M1111 180h-2v-1h2zM661 121h-2v-1h2z"/><path d="M810 176.33V150" stroke="#000" stroke-width="2" fill="none"/><path d="M811 177.33h-2v-1h2z"/><path d="M987.5 299.2h245V374h-245z" stroke="#000" stroke-width="2" fill="#3aa6dd"/><use xlink:href="#y" transform="matrix(1,0,0,1,992.5,304.2) translate(90.95 36.1)"/><path d="M987.5 413.8h245v74.8h-245z" stroke="#000" stroke-width="2" fill="#3aa6dd"/><use xlink:href="#z" transform="matrix(1,0,0,1,992.5,418.8) translate(49.724999999999994 36.1)"/><path d="M1110 258.87v39.33" stroke="#000" stroke-width="2" fill="none"/><path d="M1111 299.2h-2v-1h2z"/><path d="M1110 375v37.8" stroke="#000" stroke-width="2" fill="none"/><path d="M1111 375h-2v-1h2zM1111 413.8h-2v-1h2z"/><path d="M508.67 176.33v-13.5h-.27v-13.5" stroke="#000" stroke-width="2" fill="none"/><path d="M509.68 177.33h-2v-.98l2-.03z"/><path d="M87.5 644.4h245v74.8h-245z" stroke="#000" stroke-width="2" fill="#83bbe5"/><g><use xlink:href="#A" transform="matrix(1,0,0,1,92.5,649.4) translate(87.55 36.1)"/></g><path d="M210 610.6v32.8" stroke="#000" stroke-width="2" fill="none"/><path d="M211 644.4h-2v-1h2z"/><path d="M210 643.4v-38" stroke="#000" stroke-width="2" fill="none"/><path d="M211 644.4h-2v-1h2zM211 605.4h-2v-1h2z"/><defs><path d="M24-248c120-7 223 5 221 122C244-46 201 0 124 0H24v-248zM76-40c74 7 117-18 117-86 0-67-45-88-117-82v168" id="B"/><path d="M185-48c-13 30-37 53-82 52C43 2 14-33 14-96s30-98 90-98c62 0 83 45 84 108H66c0 31 8 55 39 56 18 0 30-7 34-22zm-45-69c5-46-57-63-70-21-2 6-4 13-4 21h74" id="C"/><path d="M220-157c-53 9-28 100-34 157h-49v-107c1-27-5-49-29-50C55-147 81-57 75 0H25l-1-190h47c2 12-1 28 3 38 10-53 101-56 108 0 13-22 24-43 59-42 82 1 51 116 57 194h-49v-107c-1-25-5-48-29-50" id="D"/><path d="M110-194c64 0 96 36 96 99 0 64-35 99-97 99-61 0-95-36-95-99 0-62 34-99 96-99zm-1 164c35 0 45-28 45-65 0-40-10-65-43-65-34 0-45 26-45 65 0 36 10 65 43 65" id="E"/><path d="M137-138c1-29-70-34-71-4 15 46 118 7 119 86 1 83-164 76-172 9l43-7c4 19 20 25 44 25 33 8 57-30 24-41C81-84 22-81 20-136c-2-80 154-74 161-7" id="F"/><path d="M14-72v-43h91v43H14" id="G"/><path d="M275 0h-61l-44-196L126 0H64L0-248h53L97-49l45-199h58l43 199 44-199h52" id="H"/><path d="M135-150c-39-12-60 13-60 57V0H25l-1-190h47c2 13-1 29 3 40 6-28 27-53 61-41v41" id="I"/><path d="M147 0L96-86 75-71V0H25v-261h50v150l67-79h53l-66 74L201 0h-54" id="J"/><path d="M114-157C55-157 80-60 75 0H25v-261h50l-1 109c12-26 28-41 61-42 86-1 58 113 63 194h-50c-7-57 23-157-34-157" id="K"/><path d="M135-194c53 0 70 44 70 98 0 56-19 98-73 100-31 1-45-17-59-34 3 33 2 69 2 105H25l-1-265h48c2 10 0 23 3 31 11-24 29-35 60-35zM114-30c33 0 39-31 40-66 0-38-9-64-40-64-56 0-55 130 0 130" id="L"/><g id="a"><use transform="matrix(0.05,0,0,0.05,0,0)" xlink:href="#B"/><use transform="matrix(0.05,0,0,0.05,12.950000000000001,0)" xlink:href="#C"/><use transform="matrix(0.05,0,0,0.05,22.950000000000003,0)" xlink:href="#D"/><use transform="matrix(0.05,0,0,0.05,38.95,0)" xlink:href="#E"/><use transform="matrix(0.05,0,0,0.05,49.900000000000006,0)" xlink:href="#F"/><use transform="matrix(0.05,0,0,0.05,59.900000000000006,0)" xlink:href="#G"/><use transform="matrix(0.05,0,0,0.05,65.85000000000001,0)" xlink:href="#H"/><use transform="matrix(0.05,0,0,0.05,82.45000000000002,0)" xlink:href="#E"/><use transform="matrix(0.05,0,0,0.05,93.40000000000002,0)" xlink:href="#I"/><use transform="matrix(0.05,0,0,0.05,100.40000000000002,0)" xlink:href="#J"/><use transform="matrix(0.05,0,0,0.05,110.40000000000003,0)" xlink:href="#F"/><use transform="matrix(0.05,0,0,0.05,120.40000000000003,0)" xlink:href="#K"/><use transform="matrix(0.05,0,0,0.05,131.35000000000002,0)" xlink:href="#E"/><use transform="matrix(0.05,0,0,0.05,142.3,0)" xlink:href="#L"/><use transform="matrix(0.05,0,0,0.05,153.25,0)" xlink:href="#F"/></g><path d="M24-248c93 1 206-16 204 79-1 75-69 88-152 82V0H24v-248zm52 121c47 0 100 7 100-41 0-47-54-39-100-39v80" id="M"/><path d="M140-251c80 0 125 45 125 126S219 4 139 4C58 4 15-44 15-125s44-126 125-126zm-1 214c52 0 73-35 73-88 0-50-21-86-72-86-52 0-73 35-73 86s22 88 72 88" id="N"/><path d="M67-125c0 53 21 87 73 88 37 1 54-22 65-47l45 17C233-25 199 4 140 4 58 4 20-42 15-125 8-235 124-281 211-232c18 10 29 29 36 50l-46 12c-8-25-30-41-62-41-52 0-71 34-72 86" id="O"/><path d="M62-158H24l-5-90h48" id="P"/><g id="b"><use transform="matrix(0.05,0,0,0.05,0,0)" xlink:href="#M"/><use transform="matrix(0.05,0,0,0.05,12,0)" xlink:href="#N"/><use transform="matrix(0.05,0,0,0.05,26,0)" xlink:href="#O"/><use transform="matrix(0.05,0,0,0.05,38.95,0)" xlink:href="#P"/><use transform="matrix(0.05,0,0,0.05,43.2,0)" xlink:href="#F"/></g><path d="M240-174c0 40-23 61-54 70L253 0h-59l-57-94H76V0H24v-248c93 4 217-23 216 74zM76-134c48-2 112 12 112-38 0-48-66-32-112-35v73" id="Q"/><path d="M121-226c-27-7-43 5-38 36h38v33H83V0H34v-157H6v-33h28c-9-59 32-81 87-68v32" id="R"/><path d="M135-194c87-1 58 113 63 194h-50c-7-57 23-157-34-157-59 0-34 97-39 157H25l-1-190h47c2 12-1 28 3 38 12-26 28-41 61-42" id="S"/><path d="M190-63c-7 42-38 67-86 67-59 0-84-38-90-98-12-110 154-137 174-36l-49 2c-2-19-15-32-35-32-30 0-35 28-38 64-6 74 65 87 74 30" id="T"/><g id="c"><use transform="matrix(0.05,0,0,0.05,0,0)" xlink:href="#Q"/><use transform="matrix(0.05,0,0,0.05,12.950000000000001,0)" xlink:href="#C"/><use transform="matrix(0.05,0,0,0.05,22.950000000000003,0)" xlink:href="#R"/><use transform="matrix(0.05,0,0,0.05,28.900000000000002,0)" xlink:href="#C"/><use transform="matrix(0.05,0,0,0.05,38.900000000000006,0)" xlink:href="#I"/><use transform="matrix(0.05,0,0,0.05,45.900000000000006,0)" xlink:href="#C"/><use transform="matrix(0.05,0,0,0.05,55.900000000000006,0)" xlink:href="#S"/><use transform="matrix(0.05,0,0,0.05,66.85000000000001,0)" xlink:href="#T"/><use transform="matrix(0.05,0,0,0.05,76.85000000000001,0)" xlink:href="#C"/></g><path d="M199 0l-22-63H83L61 0H9l90-248h61L250 0h-51zm-33-102l-36-108c-10 38-24 72-36 108h72" id="U"/><path d="M25-224v-37h50v37H25zM25 0v-190h50V0H25" id="V"/><path d="M115-3C79 11 28 4 28-45v-112H4v-33h27l15-45h31v45h36v33H77v99c-1 23 16 31 38 25v30" id="W"/><path d="M85 4C-2 5 27-109 22-190h50c7 57-23 150 33 157 60-5 35-97 40-157h50l1 190h-47c-2-12 1-28-3-38-12 25-28 42-61 42" id="X"/><g id="d"><use transform="matrix(0.05,0,0,0.05,0,0)" xlink:href="#U"/><use transform="matrix(0.05,0,0,0.05,12.950000000000001,0)" xlink:href="#I"/><use transform="matrix(0.05,0,0,0.05,19.950000000000003,0)" xlink:href="#T"/><use transform="matrix(0.05,0,0,0.05,29.950000000000003,0)" xlink:href="#K"/><use transform="matrix(0.05,0,0,0.05,40.900000000000006,0)" xlink:href="#V"/><use transform="matrix(0.05,0,0,0.05,45.900000000000006,0)" xlink:href="#W"/><use transform="matrix(0.05,0,0,0.05,51.85,0)" xlink:href="#C"/><use transform="matrix(0.05,0,0,0.05,61.85,0)" xlink:href="#T"/><use transform="matrix(0.05,0,0,0.05,71.85000000000001,0)" xlink:href="#W"/><use transform="matrix(0.05,0,0,0.05,77.80000000000001,0)" xlink:href="#X"/><use transform="matrix(0.05,0,0,0.05,88.75000000000001,0)" xlink:href="#I"/><use transform="matrix(0.05,0,0,0.05,95.75000000000001,0)" xlink:href="#C"/><use transform="matrix(0.05,0,0,0.05,105.75,0)" xlink:href="#F"/></g><g id="e"><use transform="matrix(0.05,0,0,0.05,0,0)" xlink:href="#O"/><use transform="matrix(0.05,0,0,0.05,12.950000000000001,0)" xlink:href="#X"/><use transform="matrix(0.05,0,0,0.05,23.900000000000002,0)" xlink:href="#F"/><use transform="matrix(0.05,0,0,0.05,33.900000000000006,0)" xlink:href="#W"/><use transform="matrix(0.05,0,0,0.05,39.85000000000001,0)" xlink:href="#E"/><use transform="matrix(0.05,0,0,0.05,50.80000000000001,0)" xlink:href="#D"/><use transform="matrix(0.05,0,0,0.05,66.80000000000001,0)" xlink:href="#C"/><use transform="matrix(0.05,0,0,0.05,76.80000000000001,0)" xlink:href="#I"/></g><path d="M24 0v-248h195v40H76v63h132v40H76v65h150V0H24" id="Y"/><path d="M133-34C117-15 103 5 69 4 32 3 11-16 11-54c-1-60 55-63 116-61 1-26-3-47-28-47-18 1-26 9-28 27l-52-2c7-38 36-58 82-57s74 22 75 68l1 82c-1 14 12 18 25 15v27c-30 8-71 5-69-32zm-48 3c29 0 43-24 42-57-32 0-66-3-65 30 0 17 8 27 23 27" id="Z"/><path d="M135-194c52 0 70 43 70 98 0 56-19 99-73 100-30 1-46-15-58-35L72 0H24l1-261h50v104c11-23 29-37 60-37zM114-30c31 0 40-27 40-66 0-37-7-63-39-63s-41 28-41 65c0 36 8 64 40 64" id="aa"/><path d="M25 0v-261h50V0H25" id="ab"/><g id="f"><use transform="matrix(0.05,0,0,0.05,0,0)" xlink:href="#Y"/><use transform="matrix(0.05,0,0,0.05,12,0)" xlink:href="#S"/><use transform="matrix(0.05,0,0,0.05,22.950000000000003,0)" xlink:href="#Z"/><use transform="matrix(0.05,0,0,0.05,32.95,0)" xlink:href="#aa"/><use transform="matrix(0.05,0,0,0.05,43.900000000000006,0)" xlink:href="#ab"/><use transform="matrix(0.05,0,0,0.05,48.900000000000006,0)" xlink:href="#C"/><use transform="matrix(0.05,0,0,0.05,58.900000000000006,0)" xlink:href="#D"/><use transform="matrix(0.05,0,0,0.05,74.9,0)" xlink:href="#C"/><use transform="matrix(0.05,0,0,0.05,84.9,0)" xlink:href="#S"/><use transform="matrix(0.05,0,0,0.05,95.85000000000001,0)" xlink:href="#W"/></g><g id="g"><use transform="matrix(0.05,0,0,0.05,0,0)" xlink:href="#N"/><use transform="matrix(0.05,0,0,0.05,14,0)" xlink:href="#O"/><use transform="matrix(0.05,0,0,0.05,26.950000000000003,0)" xlink:href="#M"/></g><path d="M24 0v-248h52V0H24" id="ac"/><path d="M195-6C206 82 75 100 31 46c-4-6-6-13-8-21l49-6c3 16 16 24 34 25 40 0 42-37 40-79-11 22-30 35-61 35-53 0-70-43-70-97 0-56 18-96 73-97 30 0 46 14 59 34l2-30h47zm-90-29c32 0 41-27 41-63 0-35-9-62-40-62-32 0-39 29-40 63 0 36 9 62 39 62" id="ad"/><g id="h"><use transform="matrix(0.05,0,0,0.05,0,0)" xlink:href="#ac"/><use transform="matrix(0.05,0,0,0.05,5,0)" xlink:href="#D"/><use transform="matrix(0.05,0,0,0.05,21,0)" xlink:href="#Z"/><use transform="matrix(0.05,0,0,0.05,31,0)" xlink:href="#ad"/><use transform="matrix(0.05,0,0,0.05,41.95,0)" xlink:href="#C"/><use transform="matrix(0.05,0,0,0.05,51.95,0)" xlink:href="#F"/></g><g id="i"><use transform="matrix(0.05,0,0,0.05,0,0)" xlink:href="#H"/><use transform="matrix(0.05,0,0,0.05,16.599999999999998,0)" xlink:href="#E"/><use transform="matrix(0.05,0,0,0.05,27.549999999999997,0)" xlink:href="#I"/><use transform="matrix(0.05,0,0,0.05,34.55,0)" xlink:href="#J"/><use transform="matrix(0.05,0,0,0.05,44.55,0)" xlink:href="#F"/><use transform="matrix(0.05,0,0,0.05,54.54999999999999,0)" xlink:href="#K"/><use transform="matrix(0.05,0,0,0.05,65.5,0)" xlink:href="#E"/><use transform="matrix(0.05,0,0,0.05,76.45,0)" xlink:href="#L"/></g><path d="M24 0v-248h52v208h133V0H24" id="ae"/><g id="j"><use transform="matrix(0.05,0,0,0.05,0,0)" xlink:href="#ae"/><use transform="matrix(0.05,0,0,0.05,10.950000000000001,0)" xlink:href="#E"/><use transform="matrix(0.05,0,0,0.05,21.900000000000002,0)" xlink:href="#T"/><use transform="matrix(0.05,0,0,0.05,31.900000000000002,0)" xlink:href="#Z"/><use transform="matrix(0.05,0,0,0.05,41.900000000000006,0)" xlink:href="#W"/><use transform="matrix(0.05,0,0,0.05,47.85000000000001,0)" xlink:href="#V"/><use transform="matrix(0.05,0,0,0.05,52.85,0)" xlink:href="#E"/><use transform="matrix(0.05,0,0,0.05,63.80000000000001,0)" xlink:href="#S"/><use transform="matrix(0.05,0,0,0.05,74.75000000000001,0)" xlink:href="#F"/></g><path d="M169-182c-1-43-94-46-97-3 18 66 151 10 154 114 3 95-165 93-204 36-6-8-10-19-12-30l50-8c3 46 112 56 116 5-17-69-150-10-154-114-4-87 153-88 188-35 5 8 8 18 10 28" id="af"/><g id="k"><use transform="matrix(0.05,0,0,0.05,0,0)" xlink:href="#af"/><use transform="matrix(0.05,0,0,0.05,12,0)" xlink:href="#T"/><use transform="matrix(0.05,0,0,0.05,22,0)" xlink:href="#I"/><use transform="matrix(0.05,0,0,0.05,29,0)" xlink:href="#V"/><use transform="matrix(0.05,0,0,0.05,34,0)" xlink:href="#L"/><use transform="matrix(0.05,0,0,0.05,44.95,0)" xlink:href="#W"/><use transform="matrix(0.05,0,0,0.05,50.900000000000006,0)" xlink:href="#F"/></g><path fill="#fff" d="M140-251c80 0 125 45 125 126S219 4 139 4C58 4 15-44 15-125s44-126 125-126zm-1 214c52 0 73-35 73-88 0-50-21-86-72-86-52 0-73 35-73 86s22 88 72 88" id="ag"/><path fill="#fff" d="M135-194c53 0 70 44 70 98 0 56-19 98-73 100-31 1-45-17-59-34 3 33 2 69 2 105H25l-1-265h48c2 10 0 23 3 31 11-24 29-35 60-35zM114-30c33 0 39-31 40-66 0-38-9-64-40-64-56 0-55 130 0 130" id="ah"/><path fill="#fff" d="M185-48c-13 30-37 53-82 52C43 2 14-33 14-96s30-98 90-98c62 0 83 45 84 108H66c0 31 8 55 39 56 18 0 30-7 34-22zm-45-69c5-46-57-63-70-21-2 6-4 13-4 21h74" id="ai"/><path fill="#fff" d="M135-194c87-1 58 113 63 194h-50c-7-57 23-157-34-157-59 0-34 97-39 157H25l-1-190h47c2 12-1 28 3 38 12-26 28-41 61-42" id="aj"/><path fill="#fff" d="M169-182c-1-43-94-46-97-3 18 66 151 10 154 114 3 95-165 93-204 36-6-8-10-19-12-30l50-8c3 46 112 56 116 5-17-69-150-10-154-114-4-87 153-88 188-35 5 8 8 18 10 28" id="ak"/><path fill="#fff" d="M114-157C55-157 80-60 75 0H25v-261h50l-1 109c12-26 28-41 61-42 86-1 58 113 63 194h-50c-7-57 23-157-34-157" id="al"/><path fill="#fff" d="M25-224v-37h50v37H25zM25 0v-190h50V0H25" id="am"/><path fill="#fff" d="M121-226c-27-7-43 5-38 36h38v33H83V0H34v-157H6v-33h28c-9-59 32-81 87-68v32" id="an"/><path fill="#fff" d="M115-3C79 11 28 4 28-45v-112H4v-33h27l15-45h31v45h36v33H77v99c-1 23 16 31 38 25v30" id="ao"/><g id="l"><use transform="matrix(0.05,0,0,0.05,0,0)" xlink:href="#ag"/><use transform="matrix(0.05,0,0,0.05,14,0)" xlink:href="#ah"/><use transform="matrix(0.05,0,0,0.05,24.950000000000003,0)" xlink:href="#ai"/><use transform="matrix(0.05,0,0,0.05,34.95,0)" xlink:href="#aj"/><use transform="matrix(0.05,0,0,0.05,45.900000000000006,0)" xlink:href="#ak"/><use transform="matrix(0.05,0,0,0.05,57.900000000000006,0)" xlink:href="#al"/><use transform="matrix(0.05,0,0,0.05,68.85000000000001,0)" xlink:href="#am"/><use transform="matrix(0.05,0,0,0.05,73.85000000000001,0)" xlink:href="#an"/><use transform="matrix(0.05,0,0,0.05,79.80000000000001,0)" xlink:href="#ao"/></g><path fill="#fff" d="M67-125c0 53 21 87 73 88 37 1 54-22 65-47l45 17C233-25 199 4 140 4 58 4 20-42 15-125 8-235 124-281 211-232c18 10 29 29 36 50l-46 12c-8-25-30-41-62-41-52 0-71 34-72 86" id="ap"/><path fill="#fff" d="M135-150c-39-12-60 13-60 57V0H25l-1-190h47c2 13-1 29 3 40 6-28 27-53 61-41v41" id="aq"/><g id="m"><use transform="matrix(0.05,0,0,0.05,0,0)" xlink:href="#ap"/><use transform="matrix(0.05,0,0,0.05,12.950000000000001,0)" xlink:href="#ai"/><use transform="matrix(0.05,0,0,0.05,22.950000000000003,0)" xlink:href="#aj"/><use transform="matrix(0.05,0,0,0.05,33.900000000000006,0)" xlink:href="#ao"/><use transform="matrix(0.05,0,0,0.05,39.85000000000001,0)" xlink:href="#ai"/><use transform="matrix(0.05,0,0,0.05,49.85000000000001,0)" xlink:href="#aq"/></g><path fill="#fff" d="M110-194c64 0 96 36 96 99 0 64-35 99-97 99-61 0-95-36-95-99 0-62 34-99 96-99zm-1 164c35 0 45-28 45-65 0-40-10-65-43-65-34 0-45 26-45 65 0 36 10 65 43 65" id="ar"/><g id="n"><use transform="matrix(0.05,0,0,0.05,0,0)" xlink:href="#ar"/><use transform="matrix(0.05,0,0,0.05,10.950000000000001,0)" xlink:href="#an"/></g><path fill="#fff" d="M24 0v-248h195v40H76v63h132v40H76v65h150V0H24" id="as"/><path fill="#fff" d="M144 0l-44-69L55 0H2l70-98-66-92h53l41 62 40-62h54l-67 91 71 99h-54" id="at"/><path fill="#fff" d="M190-63c-7 42-38 67-86 67-59 0-84-38-90-98-12-110 154-137 174-36l-49 2c-2-19-15-32-35-32-30 0-35 28-38 64-6 74 65 87 74 30" id="au"/><path fill="#fff" d="M25 0v-261h50V0H25" id="av"/><g id="o"><use transform="matrix(0.05,0,0,0.05,0,0)" xlink:href="#as"/><use transform="matrix(0.05,0,0,0.05,12,0)" xlink:href="#at"/><use transform="matrix(0.05,0,0,0.05,22,0)" xlink:href="#au"/><use transform="matrix(0.05,0,0,0.05,32,0)" xlink:href="#ai"/><use transform="matrix(0.05,0,0,0.05,42,0)" xlink:href="#av"/><use transform="matrix(0.05,0,0,0.05,47,0)" xlink:href="#av"/><use transform="matrix(0.05,0,0,0.05,52,0)" xlink:href="#ai"/><use transform="matrix(0.05,0,0,0.05,62,0)" xlink:href="#aj"/><use transform="matrix(0.05,0,0,0.05,72.95,0)" xlink:href="#au"/><use transform="matrix(0.05,0,0,0.05,82.95,0)" xlink:href="#ai"/></g><path d="M84 4C32 4 15-41 15-95c0-55 18-99 73-99 29 0 47 12 58 34l2-30h48l-1 265h-49V-32C136-9 114 4 84 4zm21-34c32 0 41-29 41-66 0-36-9-64-40-64-33 0-39 30-40 65 0 43 13 65 39 65" id="aw"/><g id="p"><use transform="matrix(0.05,0,0,0.05,0,0)" xlink:href="#M"/><use transform="matrix(0.05,0,0,0.05,12,0)" xlink:href="#I"/><use transform="matrix(0.05,0,0,0.05,19,0)" xlink:href="#C"/><use transform="matrix(0.05,0,0,0.05,29,0)" xlink:href="#G"/><use transform="matrix(0.05,0,0,0.05,34.95,0)" xlink:href="#I"/><use transform="matrix(0.05,0,0,0.05,41.95,0)" xlink:href="#C"/><use transform="matrix(0.05,0,0,0.05,51.95,0)" xlink:href="#aw"/><use transform="matrix(0.05,0,0,0.05,62.900000000000006,0)" xlink:href="#F"/></g><g id="q"><use transform="matrix(0.05,0,0,0.05,0,0)" xlink:href="#R"/><use transform="matrix(0.05,0,0,0.05,5.95,0)" xlink:href="#E"/><use transform="matrix(0.05,0,0,0.05,16.900000000000002,0)" xlink:href="#I"/></g><g id="r"><use transform="matrix(0.05,0,0,0.05,0,0)" xlink:href="#M"/><use transform="matrix(0.05,0,0,0.05,12,0)" xlink:href="#N"/><use transform="matrix(0.05,0,0,0.05,26,0)" xlink:href="#O"/><use transform="matrix(0.05,0,0,0.05,38.95,0)" xlink:href="#P"/><use transform="matrix(0.05,0,0,0.05,43.2,0)" xlink:href="#F"/></g><g id="s"><use transform="matrix(0.05,0,0,0.05,0,0)" xlink:href="#af"/><use transform="matrix(0.05,0,0,0.05,12,0)" xlink:href="#X"/><use transform="matrix(0.05,0,0,0.05,22.950000000000003,0)" xlink:href="#T"/><use transform="matrix(0.05,0,0,0.05,32.95,0)" xlink:href="#T"/><use transform="matrix(0.05,0,0,0.05,42.95,0)" xlink:href="#C"/><use transform="matrix(0.05,0,0,0.05,52.95,0)" xlink:href="#F"/><use transform="matrix(0.05,0,0,0.05,62.95,0)" xlink:href="#F"/></g><g id="t"><use transform="matrix(0.05,0,0,0.05,0,0)" xlink:href="#O"/><use transform="matrix(0.05,0,0,0.05,12.950000000000001,0)" xlink:href="#I"/><use transform="matrix(0.05,0,0,0.05,19.950000000000003,0)" xlink:href="#V"/><use transform="matrix(0.05,0,0,0.05,24.950000000000003,0)" xlink:href="#W"/><use transform="matrix(0.05,0,0,0.05,30.900000000000002,0)" xlink:href="#C"/><use transform="matrix(0.05,0,0,0.05,40.900000000000006,0)" xlink:href="#I"/><use transform="matrix(0.05,0,0,0.05,47.900000000000006,0)" xlink:href="#V"/><use transform="matrix(0.05,0,0,0.05,52.900000000000006,0)" xlink:href="#Z"/></g><g id="u"><use transform="matrix(0.05,0,0,0.05,0,0)" xlink:href="#O"/><use transform="matrix(0.05,0,0,0.05,12.950000000000001,0)" xlink:href="#I"/><use transform="matrix(0.05,0,0,0.05,19.950000000000003,0)" xlink:href="#C"/><use transform="matrix(0.05,0,0,0.05,29.950000000000003,0)" xlink:href="#Z"/><use transform="matrix(0.05,0,0,0.05,39.95,0)" xlink:href="#W"/><use transform="matrix(0.05,0,0,0.05,45.900000000000006,0)" xlink:href="#V"/><use transform="matrix(0.05,0,0,0.05,50.900000000000006,0)" xlink:href="#E"/><use transform="matrix(0.05,0,0,0.05,61.85,0)" xlink:href="#S"/></g><g id="v"><use transform="matrix(0.05,0,0,0.05,0,0)" xlink:href="#M"/><use transform="matrix(0.05,0,0,0.05,12,0)" xlink:href="#I"/><use transform="matrix(0.05,0,0,0.05,19,0)" xlink:href="#E"/><use transform="matrix(0.05,0,0,0.05,29.950000000000003,0)" xlink:href="#T"/><use transform="matrix(0.05,0,0,0.05,39.95,0)" xlink:href="#C"/><use transform="matrix(0.05,0,0,0.05,49.95,0)" xlink:href="#F"/><use transform="matrix(0.05,0,0,0.05,59.95,0)" xlink:href="#F"/></g><g id="w"><use transform="matrix(0.05,0,0,0.05,0,0)" xlink:href="#B"/><use transform="matrix(0.05,0,0,0.05,12.950000000000001,0)" xlink:href="#E"/><use transform="matrix(0.05,0,0,0.05,23.900000000000002,0)" xlink:href="#T"/><use transform="matrix(0.05,0,0,0.05,33.900000000000006,0)" xlink:href="#X"/><use transform="matrix(0.05,0,0,0.05,44.85000000000001,0)" xlink:href="#D"/><use transform="matrix(0.05,0,0,0.05,60.85,0)" xlink:href="#C"/><use transform="matrix(0.05,0,0,0.05,70.85000000000001,0)" xlink:href="#S"/><use transform="matrix(0.05,0,0,0.05,81.80000000000001,0)" xlink:href="#W"/><use transform="matrix(0.05,0,0,0.05,87.75000000000001,0)" xlink:href="#Z"/><use transform="matrix(0.05,0,0,0.05,97.75000000000001,0)" xlink:href="#W"/><use transform="matrix(0.05,0,0,0.05,103.7,0)" xlink:href="#V"/><use transform="matrix(0.05,0,0,0.05,108.7,0)" xlink:href="#E"/><use transform="matrix(0.05,0,0,0.05,119.65000000000003,0)" xlink:href="#S"/></g><path d="M123 10C108 53 80 86 19 72V37c35 8 53-11 59-39L3-190h52l48 148c12-52 28-100 44-148h51" id="ax"/><path d="M4 7l51-268h42L46 7H4" id="ay"/><g id="x"><use transform="matrix(0.05,0,0,0.05,0,0)" xlink:href="#B"/><use transform="matrix(0.05,0,0,0.05,12.950000000000001,0)" xlink:href="#C"/><use transform="matrix(0.05,0,0,0.05,22.950000000000003,0)" xlink:href="#L"/><use transform="matrix(0.05,0,0,0.05,33.900000000000006,0)" xlink:href="#ab"/><use transform="matrix(0.05,0,0,0.05,38.900000000000006,0)" xlink:href="#E"/><use transform="matrix(0.05,0,0,0.05,49.85000000000001,0)" xlink:href="#ax"/><use transform="matrix(0.05,0,0,0.05,59.85,0)" xlink:href="#D"/><use transform="matrix(0.05,0,0,0.05,75.85000000000001,0)" xlink:href="#C"/><use transform="matrix(0.05,0,0,0.05,85.85000000000001,0)" xlink:href="#S"/><use transform="matrix(0.05,0,0,0.05,96.80000000000001,0)" xlink:href="#W"/><use transform="matrix(0.05,0,0,0.05,102.75,0)" xlink:href="#F"/><use transform="matrix(0.05,0,0,0.05,112.75,0)" xlink:href="#ay"/><use transform="matrix(0.05,0,0,0.05,117.75,0)" xlink:href="#B"/><use transform="matrix(0.05,0,0,0.05,130.70000000000002,0)" xlink:href="#V"/><use transform="matrix(0.05,0,0,0.05,135.70000000000002,0)" xlink:href="#Z"/><use transform="matrix(0.05,0,0,0.05,145.70000000000002,0)" xlink:href="#ad"/><use transform="matrix(0.05,0,0,0.05,156.65,0)" xlink:href="#I"/><use transform="matrix(0.05,0,0,0.05,163.65,0)" xlink:href="#Z"/><use transform="matrix(0.05,0,0,0.05,173.65,0)" xlink:href="#D"/><use transform="matrix(0.05,0,0,0.05,189.65,0)" xlink:href="#F"/></g><path d="M195 0l-88-114-31 24V0H24v-248h52v113l112-113h60L142-143 257 0h-62" id="az"/><g id="y"><use transform="matrix(0.05,0,0,0.05,0,0)" xlink:href="#O"/><use transform="matrix(0.05,0,0,0.05,12.950000000000001,0)" xlink:href="#B"/><use transform="matrix(0.05,0,0,0.05,25.900000000000002,0)" xlink:href="#az"/><use transform="matrix(0.05,0,0,0.05,38.85,0)" xlink:href="#P"/><use transform="matrix(0.05,0,0,0.05,43.1,0)" xlink:href="#F"/></g><g id="z"><use transform="matrix(0.05,0,0,0.05,0,0)" xlink:href="#ae"/><use transform="matrix(0.05,0,0,0.05,10.950000000000001,0)" xlink:href="#X"/><use transform="matrix(0.05,0,0,0.05,21.900000000000002,0)" xlink:href="#S"/><use transform="matrix(0.05,0,0,0.05,32.85,0)" xlink:href="#T"/><use transform="matrix(0.05,0,0,0.05,42.85,0)" xlink:href="#K"/><use transform="matrix(0.05,0,0,0.05,53.800000000000004,0)" xlink:href="#G"/><use transform="matrix(0.05,0,0,0.05,59.75,0)" xlink:href="#S"/><use transform="matrix(0.05,0,0,0.05,70.7,0)" xlink:href="#G"/><use transform="matrix(0.05,0,0,0.05,76.65,0)" xlink:href="#ae"/><use transform="matrix(0.05,0,0,0.05,87.60000000000001,0)" xlink:href="#C"/><use transform="matrix(0.05,0,0,0.05,97.60000000000001,0)" xlink:href="#Z"/><use transform="matrix(0.05,0,0,0.05,107.60000000000001,0)" xlink:href="#I"/><use transform="matrix(0.05,0,0,0.05,114.60000000000001,0)" xlink:href="#S"/><use transform="matrix(0.05,0,0,0.05,125.55000000000001,0)" xlink:href="#F"/></g><g id="A"><use transform="matrix(0.05,0,0,0.05,0,0)" xlink:href="#B"/><use transform="matrix(0.05,0,0,0.05,12.950000000000001,0)" xlink:href="#C"/><use transform="matrix(0.05,0,0,0.05,22.950000000000003,0)" xlink:href="#D"/><use transform="matrix(0.05,0,0,0.05,38.95,0)" xlink:href="#E"/><use transform="matrix(0.05,0,0,0.05,49.900000000000006,0)" xlink:href="#F"/></g></defs></g></svg>